<mxfile host="app.diagrams.net" agent="Mozilla/5.0 (Macintosh; Intel Mac OS X 10_15_7) AppleWebKit/537.36 (KHTML, like Gecko) Chrome/133.0.0.0 Safari/537.36" version="26.0.16">
  <diagram name="Page-1" id="px9kx3slcnb5_E4VtIDT">
    <mxGraphModel>
      <root>
        <mxCell id="0" />
        <mxCell id="1" parent="0" />
        <mxCell id="2" value="D" style="whiteSpace=wrap;strokeWidth=2;verticalAlign=top;" vertex="1" parent="1">
          <mxGeometry x="8" y="8" width="179" height="516" as="geometry" />
        </mxCell>
        <mxCell id="3" value="Box D1" style="whiteSpace=wrap;strokeWidth=2;" vertex="1" parent="2">
          <mxGeometry x="43" y="46" width="109" height="54" as="geometry" />
        </mxCell>
        <mxCell id="4" value="Box D2" style="whiteSpace=wrap;strokeWidth=2;" vertex="1" parent="2">
          <mxGeometry x="43" y="175" width="109" height="54" as="geometry" />
        </mxCell>
        <mxCell id="5" value="Box D3" style="whiteSpace=wrap;strokeWidth=2;" vertex="1" parent="2">
          <mxGeometry x="43" y="304" width="109" height="54" as="geometry" />
        </mxCell>
        <mxCell id="6" value="Box D4" style="whiteSpace=wrap;strokeWidth=2;" vertex="1" parent="2">
          <mxGeometry x="43" y="433" width="109" height="54" as="geometry" />
        </mxCell>
        <mxCell id="7" value="" style="curved=1;startArrow=none;endArrow=block;exitX=0.5;exitY=0.99;entryX=0.5;entryY=-0.01;" edge="1" parent="2" source="3" target="4">
          <mxGeometry relative="1" as="geometry">
            <Array as="points" />
          </mxGeometry>
        </mxCell>
        <mxCell id="8" value="" style="curved=1;startArrow=none;endArrow=block;exitX=0.5;exitY=0.99;entryX=0.5;entryY=-0.01;" edge="1" parent="2" source="4" target="5">
          <mxGeometry relative="1" as="geometry">
            <Array as="points" />
          </mxGeometry>
        </mxCell>
        <mxCell id="9" value="" style="curved=1;startArrow=none;endArrow=block;exitX=0.5;exitY=0.99;entryX=0.5;entryY=-0.01;" edge="1" parent="2" source="5" target="6">
          <mxGeometry relative="1" as="geometry">
            <Array as="points" />
          </mxGeometry>
        </mxCell>
        <mxCell id="10" value="C" style="whiteSpace=wrap;strokeWidth=2;verticalAlign=top;" vertex="1" parent="1">
          <mxGeometry x="8" y="574" width="178" height="516" as="geometry" />
        </mxCell>
        <mxCell id="11" value="Box C1" style="whiteSpace=wrap;strokeWidth=2;" vertex="1" parent="10">
          <mxGeometry x="43" y="46" width="108" height="54" as="geometry" />
        </mxCell>
        <mxCell id="12" value="Box C2" style="whiteSpace=wrap;strokeWidth=2;" vertex="1" parent="10">
          <mxGeometry x="43" y="175" width="108" height="54" as="geometry" />
        </mxCell>
        <mxCell id="13" value="Box C3" style="whiteSpace=wrap;strokeWidth=2;" vertex="1" parent="10">
          <mxGeometry x="43" y="304" width="108" height="54" as="geometry" />
        </mxCell>
        <mxCell id="14" value="Box C4" style="whiteSpace=wrap;strokeWidth=2;" vertex="1" parent="10">
          <mxGeometry x="43" y="433" width="108" height="54" as="geometry" />
        </mxCell>
        <mxCell id="15" value="" style="curved=1;startArrow=none;endArrow=block;exitX=0.5;exitY=0.99;entryX=0.5;entryY=-0.01;" edge="1" parent="10" source="11" target="12">
          <mxGeometry relative="1" as="geometry">
            <Array as="points" />
          </mxGeometry>
        </mxCell>
        <mxCell id="16" value="" style="curved=1;startArrow=none;endArrow=block;exitX=0.5;exitY=0.99;entryX=0.5;entryY=-0.01;" edge="1" parent="10" source="12" target="13">
          <mxGeometry relative="1" as="geometry">
            <Array as="points" />
          </mxGeometry>
        </mxCell>
        <mxCell id="17" value="" style="curved=1;startArrow=none;endArrow=block;exitX=0.5;exitY=0.99;entryX=0.5;entryY=-0.01;" edge="1" parent="10" source="13" target="14">
          <mxGeometry relative="1" as="geometry">
            <Array as="points" />
          </mxGeometry>
        </mxCell>
        <mxCell id="18" value="B" style="whiteSpace=wrap;strokeWidth=2;verticalAlign=top;" vertex="1" parent="1">
          <mxGeometry x="8" y="1140" width="178" height="516" as="geometry" />
        </mxCell>
        <mxCell id="19" value="Box B1" style="whiteSpace=wrap;strokeWidth=2;" vertex="1" parent="18">
          <mxGeometry x="43" y="46" width="108" height="54" as="geometry" />
        </mxCell>
        <mxCell id="20" value="Box B2" style="whiteSpace=wrap;strokeWidth=2;" vertex="1" parent="18">
          <mxGeometry x="43" y="175" width="108" height="54" as="geometry" />
        </mxCell>
        <mxCell id="21" value="Box B3" style="whiteSpace=wrap;strokeWidth=2;" vertex="1" parent="18">
          <mxGeometry x="43" y="304" width="108" height="54" as="geometry" />
        </mxCell>
        <mxCell id="22" value="Box B4" style="whiteSpace=wrap;strokeWidth=2;" vertex="1" parent="18">
          <mxGeometry x="43" y="433" width="108" height="54" as="geometry" />
        </mxCell>
        <mxCell id="23" value="" style="curved=1;startArrow=none;endArrow=block;exitX=0.5;exitY=0.99;entryX=0.5;entryY=-0.01;" edge="1" parent="18" source="19" target="20">
          <mxGeometry relative="1" as="geometry">
            <Array as="points" />
          </mxGeometry>
        </mxCell>
        <mxCell id="24" value="" style="curved=1;startArrow=none;endArrow=block;exitX=0.5;exitY=0.99;entryX=0.5;entryY=-0.01;" edge="1" parent="18" source="20" target="21">
          <mxGeometry relative="1" as="geometry">
            <Array as="points" />
          </mxGeometry>
        </mxCell>
        <mxCell id="25" value="" style="curved=1;startArrow=none;endArrow=block;exitX=0.5;exitY=0.99;entryX=0.5;entryY=-0.01;" edge="1" parent="18" source="21" target="22">
          <mxGeometry relative="1" as="geometry">
            <Array as="points" />
          </mxGeometry>
        </mxCell>
        <mxCell id="26" value="A" style="whiteSpace=wrap;strokeWidth=2;verticalAlign=top;" vertex="1" parent="1">
          <mxGeometry x="9" y="1706" width="177" height="516" as="geometry" />
        </mxCell>
        <mxCell id="27" value="Box A1" style="whiteSpace=wrap;strokeWidth=2;" vertex="1" parent="26">
          <mxGeometry x="43" y="46" width="107" height="54" as="geometry" />
        </mxCell>
        <mxCell id="28" value="Box A2" style="whiteSpace=wrap;strokeWidth=2;" vertex="1" parent="26">
          <mxGeometry x="43" y="175" width="107" height="54" as="geometry" />
        </mxCell>
        <mxCell id="29" value="Box A3" style="whiteSpace=wrap;strokeWidth=2;" vertex="1" parent="26">
          <mxGeometry x="43" y="304" width="107" height="54" as="geometry" />
        </mxCell>
        <mxCell id="30" value="Box A4" style="whiteSpace=wrap;strokeWidth=2;" vertex="1" parent="26">
          <mxGeometry x="43" y="433" width="107" height="54" as="geometry" />
        </mxCell>
        <mxCell id="31" value="" style="curved=1;startArrow=none;endArrow=block;exitX=0.5;exitY=0.99;entryX=0.5;entryY=-0.01;" edge="1" parent="26" source="27" target="28">
          <mxGeometry relative="1" as="geometry">
            <Array as="points" />
          </mxGeometry>
        </mxCell>
        <mxCell id="32" value="" style="curved=1;startArrow=none;endArrow=block;exitX=0.5;exitY=0.99;entryX=0.5;entryY=-0.01;" edge="1" parent="26" source="28" target="29">
          <mxGeometry relative="1" as="geometry">
            <Array as="points" />
          </mxGeometry>
        </mxCell>
        <mxCell id="33" value="" style="curved=1;startArrow=none;endArrow=block;exitX=0.5;exitY=0.99;entryX=0.5;entryY=-0.01;" edge="1" parent="26" source="29" target="30">
          <mxGeometry relative="1" as="geometry">
            <Array as="points" />
          </mxGeometry>
        </mxCell>
      </root>
    </mxGraphModel>
  </diagram>
</mxfile>
